<svg width="9" height="18" viewBox="0 0 9 18" fill="none" xmlns="http://www.w3.org/2000/svg">
<path d="M5.4432 1.4616C5.4264 1.8816 5.2668 2.226 4.9644 2.4948C4.6788 2.7468 4.3344 2.8728 3.9312 2.8728C3.528 2.8728 3.1836 2.73 2.898 2.4444C2.6124 2.1588 2.4696 1.8144 2.4696 1.4112C2.4696 0.9744 2.646 0.63 2.9988 0.378C3.3516 0.126001 3.7128 0 4.0824 0C4.5192 0 4.8552 0.151201 5.0904 0.453601C5.3256 0.739201 5.4432 1.0752 5.4432 1.4616ZM5.0904 7.3332L4.8888 12.6252C4.8888 13.5492 4.9644 14.2716 5.1156 14.7924C5.2668 15.3132 5.5608 15.5736 5.9976 15.5736C6.4848 15.5736 6.9048 15.4644 7.2576 15.246C7.6272 15.0108 7.98 14.742 8.316 14.4396L8.6436 14.6916V14.9688C8.358 15.3384 8.022 15.7164 7.6356 16.1028C7.266 16.4724 6.8628 16.7832 6.426 17.0352C6.006 17.2872 5.5608 17.4132 5.0904 17.4132C4.7376 17.4132 4.4016 17.346 4.0824 17.2116C3.78 17.094 3.5364 16.8336 3.3516 16.4304C3.1668 16.0272 3.0744 15.414 3.0744 14.5908L3.2256 9.0216C3.2256 8.3664 3.1584 7.8456 3.024 7.4592C2.9064 7.0728 2.6796 6.8796 2.3436 6.8796C2.0748 6.8796 1.7472 6.972 1.3608 7.1568C0.9744 7.3248 0.63 7.5012 0.3276 7.686L0 7.2324C0.5712 6.7788 1.176 6.3504 1.8144 5.9472C2.4696 5.544 3.0408 5.3424 3.528 5.3424C4.0992 5.3424 4.5024 5.5356 4.7376 5.922C4.9728 6.3084 5.0904 6.7788 5.0904 7.3332Z" fill="white"/>
</svg>
